
        <svg xmlns="http://www.w3.org/2000/svg" xmlns:xlink="http://www.w3.org/1999/xlink" version="1.1" width="3187.5" height="1110.7917520189483" viewBox="0 0 3187.5 1110.7917520189483">
			
			<g transform="scale(9.375) translate(10, 10)">
				<defs id="SvgjsDefs1316"/><g id="SvgjsG1317" featureKey="symbolFeature-0" transform="matrix(1.3110110444518683,0,0,1.3110110444518683,-15.55121236914595,-16.30766655197454)" fill="#fff">
				<g xmlns="http://www.w3.org/2000/svg"><polygon points="23.52,53.793 14.409,69.574 23.52,85.355 41.743,85.355 50.855,69.574 41.743,53.793  "/>
				<polygon points="41.743,46.207 50.855,30.426 41.743,14.645 23.52,14.645 14.409,30.426 23.52,46.207  "/>
				<polygon points="76.48,34.704 58.257,34.704 49.145,50.484 58.257,66.266 76.48,66.266 85.592,50.484  "/>
				<path d="M77.753,32.498h-20.77L46.599,50.484l10.385,17.987h20.77l10.385-17.987L77.753,32.498z M76.48,66.266H58.257   l-9.112-15.781l9.112-15.781H76.48l9.111,15.781L76.48,66.266z"/>
				<path d="M22.247,51.588L11.862,69.574l10.385,17.986h20.769l10.385-17.986L43.016,51.588H22.247z M41.743,85.355H23.52   l-9.111-15.781l9.111-15.781h18.223l9.112,15.781L41.743,85.355z"/>
				<path d="M43.016,48.413l10.385-17.986L43.016,12.439H22.247L11.862,30.426l10.385,17.986H43.016z M23.52,14.645h18.223   l9.112,15.781l-9.112,15.781H23.52l-9.111-15.781L23.52,14.645z"/>
				</g></g><g id="SvgjsG1318" featureKey="nameFeature-0" transform="matrix(1.287995888538515,0,0,1.287995888538515,120.25759904719779,12.82019406609194)" fill="#fff"><path d="M1.52 12 l11.68 0 l0 0.2 c-1.64 0.2 -3.04 0.64 -3.04 2.08 l0 21.76 c0 2.48 0.04 4.16 0.24 5.4 c-2.12 2.92 -6 5.84 -10.52 7.12 l-0.08 -0.08 c3.8 -1.84 4.88 -4.28 4.88 -9.28 l0 -24.92 c0 -1.44 -1.4 -1.88 -3.16 -2.08 l0 -0.2 z M35.84 36.72 c0 2.16 0.36 2.84 1.56 3.64 l0 0.12 l-7.64 -1.24 s0.04 0 0.04 -0.04 c-1.28 0.68 -2.88 1.08 -4.76 1.08 c-5.84 0 -9.64 -3.56 -9.64 -9.12 c0 -5.84 4.08 -10.8 12.56 -10.8 c2.56 0 5.32 0.48 7.88 1.48 l0 14.88 z M20.48 28.84 c0 5.8 3.04 10.16 7.08 10.16 c1.32 0 2.32 -0.48 3.12 -1.36 c0.04 -0.4 0.08 -0.84 0.08 -1.44 l0 -12.92 c-1.24 -1.36 -2.68 -2.16 -4.6 -2.16 c-3.76 0 -5.68 3.08 -5.68 7.72 z M68.24 40 l0.24 -2.76 l0 -9.52 c0 -4.44 -1.28 -5.52 -3.08 -5.52 c-2.08 0 -3.96 1.68 -5.4 2.84 c0.16 0.72 0.24 1.6 0.24 2.6 l0 8.64 c0 2.16 0.36 2.92 1.56 3.72 l-6.88 0 l0.24 -2.76 l0 -9.52 c0 -4.44 -1.28 -5.52 -3.08 -5.52 c-1.96 0 -3.68 1.48 -5.16 2.6 l0 11.48 c0 2.16 0.36 2.92 1.56 3.72 l-6.88 0 l0.24 -2.76 l0 -15.36 c-0.56 -0.36 -1.6 -0.64 -2.44 -0.72 l0 -0.16 l7.72 -0.6 l-0.2 2.96 l0 0.52 c1.72 -1.36 4.44 -3.52 7.64 -3.52 c1.84 0 4.24 0.76 5.24 3.88 c1.56 -1.2 4.56 -3.88 8.08 -3.88 c2.4 0 5.68 1.24 5.68 7.28 l0 8.64 c0 2.16 0.36 2.92 1.56 3.72 l-6.88 0 z M85.67999999999999 40.28 c-3.08 0 -6.36 -1.04 -7.96 -2.36 l2.52 -4.08 l0.08 0 c-0.12 3.48 3.56 5.76 6.88 5.76 c2.4 0 3.48 -1.12 3.48 -3 c0 -2.44 -1.8 -3.56 -5.2 -4.04 c-6.12 -0.8 -7.36 -4.2 -7.36 -6.44 c0 -3.6 3.36 -5.76 8.04 -5.76 c3.16 0 5.64 1 7.12 2.36 l-2.72 3.76 l-0.08 0 c0.24 -3.2 -2.84 -5.52 -5.76 -5.52 c-2.64 0 -3.08 1.8 -3.08 2.88 c0 2.52 2.2 3.44 4.92 3.92 c4.56 0.8 7.28 2.84 7.28 6.2 c0 3.64 -3.2 6.32 -8.16 6.32 z M112.72 40 l0.24 -2.76 l0 -9.52 c0 -4.48 -1.6 -5.52 -3.48 -5.52 c-2.48 0 -4.4 1.6 -5.96 2.68 l0 11.24 c0 2.16 0.28 3.28 2.28 3.72 l0 0.16 l-7.72 0 l0.36 -2.48 l0 -23.8 c0 -1.6 -1.04 -1.4 -3.6 -0.64 l0 -0.24 l8.88 -4.16 l-0.2 1.8 l0 13.44 c1.88 -1.28 5.04 -3.56 8.6 -3.56 c2.52 0 5.92 1.24 5.92 7.28 l0 8.64 c0 2.16 0.36 2.92 1.56 3.72 l-6.88 0 z M126 17.44 c-1.64 0 -2.92 -1.28 -2.92 -2.96 c0 -1.64 1.28 -2.92 2.92 -2.92 s2.92 1.28 2.92 2.92 c0 1.68 -1.28 2.96 -2.92 2.96 z M123.39999999999999 40 l0.24 -2.76 l0 -15.36 c-0.56 -0.36 -1.6 -0.64 -2.44 -0.72 l0 -0.16 l7.72 -0.6 l-0.2 2.96 l0 12.92 c0 2.16 0.36 2.92 1.56 3.72 l-6.88 0 z M153.51999999999998 36.72 c0 2.16 0.36 2.84 1.56 3.64 l0 0.12 l-7.64 -1.24 s0.04 0 0.04 -0.04 c-1.28 0.68 -2.88 1.08 -4.76 1.08 c-5.84 0 -9.64 -3.56 -9.64 -9.12 c0 -5.84 4.08 -10.8 12.56 -10.8 c0.92 0 1.84 0.08 2.8 0.2 l0 -6.84 c0 -1.6 -1.04 -1.4 -3.6 -0.64 l0 -0.24 l8.88 -4.16 l-0.2 1.8 l0 26.24 z M138.16 28.84 c0 5.8 3.04 10.16 7.08 10.16 c1.32 0 2.32 -0.48 3.12 -1.36 c0.04 -0.4 0.08 -0.84 0.08 -1.44 l0 -12.92 c-1.24 -1.36 -2.68 -2.16 -4.6 -2.16 c-3.76 0 -5.68 3.08 -5.68 7.72 z"/></g>
			</g>
		</svg>
	